<?xml version="1.0" encoding="UTF-8"?>
<svg id="Layer_2" data-name="Layer 2" xmlns="http://www.w3.org/2000/svg" viewBox="0 0 294.55 118.42">
  <defs>
    <style>
      .cls-1 {
        fill: #fff;
      }
    </style>
  </defs>
  <g id="Layer_1-2" data-name="Layer 1">
    <g id="Logo">
      <g id="Eco_Resort" data-name="Eco Resort">
        <g>
          <path class="cls-1" d="M51.59,102.15h11.35v2h-9.05v4.94h8.07v1.95h-8.07v5.19h9.38v2h-11.67v-16.09Z"/>
          <path class="cls-1" d="M70.26,110.19c0-4.76,3.63-8.23,8.53-8.23,2.48,0,4.64.85,6.11,2.5l-1.49,1.45c-1.24-1.31-2.76-1.91-4.53-1.91-3.63,0-6.32,2.62-6.32,6.18s2.69,6.18,6.32,6.18c1.77,0,3.29-.62,4.53-1.93l1.49,1.45c-1.47,1.65-3.63,2.53-6.14,2.53-4.87,0-8.5-3.47-8.5-8.23Z"/>
          <path class="cls-1" d="M90.44,110.19c0-4.71,3.63-8.23,8.57-8.23s8.53,3.49,8.53,8.23-3.63,8.23-8.53,8.23-8.57-3.52-8.57-8.23ZM105.24,110.19c0-3.56-2.67-6.18-6.23-6.18s-6.27,2.62-6.27,6.18,2.67,6.18,6.27,6.18,6.23-2.62,6.23-6.18Z"/>
          <path class="cls-1" d="M126.43,102.15h6.27c4.18,0,6.71,2.11,6.71,5.61,0,2.5-1.29,4.27-3.54,5.08l3.81,5.4h-2.5l-3.47-4.94c-.32.02-.64.05-1.01.05h-3.98v4.89h-2.3v-16.09ZM132.64,111.39c2.94,0,4.48-1.33,4.48-3.63s-1.54-3.61-4.48-3.61h-3.91v7.24h3.91Z"/>
          <path class="cls-1" d="M147.74,102.15h11.35v2h-9.05v4.94h8.07v1.95h-8.07v5.19h9.38v2h-11.67v-16.09Z"/>
          <path class="cls-1" d="M166.26,116.39l.85-1.79c1.2,1.08,3.24,1.86,5.31,1.86,2.78,0,3.98-1.08,3.98-2.48,0-3.93-9.74-1.45-9.74-7.42,0-2.48,1.93-4.6,6.16-4.6,1.88,0,3.84.51,5.17,1.42l-.76,1.84c-1.4-.9-2.99-1.31-4.41-1.31-2.73,0-3.91,1.15-3.91,2.55,0,3.93,9.74,1.47,9.74,7.38,0,2.46-1.98,4.57-6.23,4.57-2.46,0-4.87-.83-6.16-2.02Z"/>
          <path class="cls-1" d="M185.29,110.19c0-4.71,3.63-8.23,8.57-8.23s8.53,3.49,8.53,8.23-3.63,8.23-8.53,8.23-8.57-3.52-8.57-8.23ZM200.09,110.19c0-3.56-2.67-6.18-6.23-6.18s-6.27,2.62-6.27,6.18,2.67,6.18,6.27,6.18,6.23-2.62,6.23-6.18Z"/>
          <path class="cls-1" d="M210.51,102.15h6.27c4.18,0,6.71,2.11,6.71,5.61,0,2.5-1.29,4.27-3.54,5.08l3.81,5.4h-2.5l-3.47-4.94c-.32.02-.64.05-1.01.05h-3.98v4.89h-2.3v-16.09ZM216.71,111.39c2.94,0,4.48-1.33,4.48-3.63s-1.54-3.61-4.48-3.61h-3.91v7.24h3.91Z"/>
          <path class="cls-1" d="M234.78,104.15h-5.52v-2h13.31v2h-5.52v14.09h-2.27v-14.09Z"/>
        </g>
        <rect class="cls-1" x="7.03" y="109.1" width="28.4" height="2.76" rx="1.01" ry="1.01"/>
        <rect class="cls-1" x="259.13" y="109.1" width="28.4" height="2.76" rx="1.01" ry="1.01"/>
      </g>
      <g id="Bagaicha">
        <g>
          <path class="cls-1" d="M134.51,56.05c-1.78,1.91-3.22,3.46-4.66,5-1.71,1.84-3.64,3.43-5.66,4.92-1.19.88-2.5,1.53-3.94,1.88-3.65.88-6.32-.96-6.79-4.66-.07-.54-.11-1.08-.18-1.77-1.41,1.29-2.71,2.51-4.05,3.69-1.54,1.35-3.27,2.34-5.35,2.59-3.41.41-5.82-1.26-6.64-4.6-.29-1.2-.23-2.42-.22-3.65-.61-.27-.72.31-.96.58-1.81,2.07-3.6,4.15-5.84,5.79-1.29.95-2.64,1.77-4.21,2.16-3.57.89-6.18-.97-6.51-4.65-.15-1.67.1-3.3.66-4.86,2.32-6.49,6.37-11.63,12.27-15.22,2.5-1.52,5.23-2.37,8.22-1.68,1.52.35,2.87,1.03,3.94,2.19.68.74,1.54,1.89,1.1,2.57-1.41,2.17-.23,4.7-1.32,6.89-1.11,2.24-1.7,4.7-2.06,7.19-.16,1.11-.14,2.27.94,2.96,1.01.64,2.06.27,2.93-.31,3.87-2.61,7.39-5.63,9.93-9.6,3.48-5.45,7.71-9.94,14.18-11.72,3.14-.87,6.07-.39,8.62,1.71,1.33,1.1,2.06,2.44.93,4.15-.16.25-.46.5-.16.79,1.81,1.72.97,3.76.63,5.67-.46,2.55-1.11,5.07-1.77,8.02,4.22-3.34,8.88-5.45,11.59-10.07,2.24-3.83,5.48-6.87,9.44-9,2.88-1.55,5.9-2.38,9.12-1,1.33.57,2.41,1.44,3.13,2.7.4.7.83,1.52.53,2.25-1.26,3.08-1.13,6.5-2.54,9.55-.66,1.44-.89,3.05-.81,4.66.12,2.23,1.25,2.95,3.3,2.1.78-.32,1.56-.74,2.21-1.27,4.02-3.23,7.79-6.6,9.28-11.88.67-2.38,1.98-4.58,3.02-6.86.71-1.57,1.91-1.95,3.47-1.34,1.53.6,2.25,1.93,1.64,3.55-.7,1.88-1.64,3.67-2.46,5.51-1.43,3.18-2.69,6.42-3.54,9.8-.25,1-.56,2.13.41,2.9,1.05.82,2.11.21,3.05-.36,3.69-2.24,6.79-5.18,9.67-8.35.59-.65.85-1.6,1.25-2.42,2.07-4.34,4.89-8.03,9.2-10.37,2.09-1.13,4.29-1.73,6.69-1.08,2.01.54,3.15,1.87,3.35,3.88.26,2.49-.76,4.54-2.66,6.1-.73.6-1.71.9-2.53.21-.87-.73-.49-1.64-.05-2.49.39-.75.75-1.52,1.12-2.29.25-.54.24-1.07-.14-1.55-.46-.58-1.02-.24-1.51-.07-1.6.56-2.88,1.63-3.95,2.89-2.73,3.2-4.68,6.84-5.62,10.96-.19.82-.24,1.7-.21,2.54.08,2.36,1.22,3.44,3.55,3.48,2.01.03,3.85-.58,5.57-1.56,4.9-2.77,8.89-6.63,12.72-10.66.35-.37.51-.96.68-1.47,4.9-14.46,10.84-28.48,17.65-42.14,1.2-2.4,2.42-3.01,4.22-2.1,1.71.86,2,2.38.86,4.73-3.27,6.75-6.55,13.5-9.4,20.44-2.5,6.09-5.13,12.12-7.28,18.35-.11.32-.44.61-.11,1.09,1.83-2.4,3.68-4.74,5.99-6.66,1.65-1.37,3.38-2.62,5.59-2.95,2.6-.39,4.56,1.01,5.06,3.58.42,2.17-.03,4.25-.57,6.32-.74,2.83-1.48,5.66-2.21,8.5-.2.78-.28,1.59-.05,2.36.33,1.08,1.03,1.71,2.21,1.11.81-.41,1.63-.86,2.31-1.45,3.2-2.74,6.15-5.68,8.37-9.36,2.88-4.8,6.69-8.75,12.06-10.79,3.01-1.14,6.01-1.09,8.66,1.07,1.97,1.61,2.21,2.96,1.04,5.24-.1.2-.3.51-.23.63,1.09,1.88-.23,3.42-.73,5.04-.72,2.33-1.59,4.63-1.6,7.11-.01,2.19,1.18,3.03,3.22,2.25,1.86-.71,3.33-2.01,4.77-3.35,2.15-2,4.09-4.19,5.92-6.49.43-.54.92-1.09,1.68-.58.8.53.65,1.26.19,1.92-2.92,4.23-6.01,8.32-10.34,11.26-2.36,1.6-4.96,2.28-7.6.89-2.74-1.45-3.07-4.2-3.13-6.97,0-.23.03-.47.09-1.23-.87.99-1.46,1.62-2,2.29-1.48,1.81-3.17,3.39-5.02,4.8-5.53,4.2-9.59,2.6-10.48-4.08-1.08,1-2.18,2.02-3.29,3.04-1.04.96-2.18,1.76-3.49,2.32-4.38,1.84-7.93-.36-8.15-5.11-.17-3.55,1.07-6.85,1.92-10.21.3-1.18.7-2.34.97-3.53.16-.69.5-1.56-.23-2.03-.64-.42-1.26.23-1.79.59-1.53,1.03-2.88,2.26-4.09,3.65-4.28,4.92-7.71,10.38-10.31,16.35-.58,1.32-1.33,2.04-2.78,1.66-1.5-.39-2.26-1.37-2.13-2.96.2-2.45,1.28-4.68,1.83-7.46-1.12,1.04-1.98,1.85-2.84,2.65-2.69,2.5-5.53,4.8-8.87,6.42-1.89.92-3.85,1.49-5.98,1.5-5.56.01-8.22-2.73-8.28-8.83-1.4,1.35-2.66,2.59-3.94,3.81-1.7,1.6-3.57,2.97-5.79,3.77-4.55,1.64-7.83-.62-7.91-5.44,0-.35,0-.71,0-1.51-1.25,1.28-2.22,2.34-3.25,3.32-1.51,1.43-3.09,2.79-5.11,3.47-4.38,1.48-8.07-.92-8.48-5.51-.07-.78,0-1.57,0-2.9-.98,1.13-1.66,1.93-2.37,2.7-2.09,2.32-4.2,4.62-7.18,5.84-2.06.85-4.16,1.27-6.07-.27-1.94-1.56-2.06-3.75-1.72-6.02.06-.41.12-.83.22-1.55-3.12,2.26-6.02,4.35-8.9,6.45-.53.39-.6,1.03-.8,1.61-2.03,5.95-4.15,11.86-7.45,17.26-2.54,4.15-5.53,7.91-9.62,10.65-2.49,1.67-5.19,2.68-8.26,2.5-4.1-.24-6.58-3.28-5.91-7.36.52-3.19,2.24-5.78,4.36-8.11,4.65-5.11,10.16-9.24,16.15-12.51,4.21-2.3,6.51-5.35,7.22-9.91.2-1.24.64-2.45,1.11-4.17ZM129.77,71.33c-6.76,4.32-13.7,8.41-18.41,15.21-.95,1.37-1.6,2.89-1.79,4.55-.29,2.51,1.12,3.68,3.56,2.99,2.97-.84,5.02-2.93,6.92-5.18,4.38-5.17,7.32-11.19,9.72-17.58ZM119.07,62.18c.05,1.15.59,1.69,1.88,1.19.92-.35,1.77-.84,2.51-1.48,2.72-2.35,5.41-4.74,7.73-7.51,1.64-1.96,3.17-4.03,4.97-5.83.71-.7.69-1.16.37-1.82-.64-1.31-1.83-1.55-3.11-1.35-1.53.24-2.92.87-4.18,1.77-4.12,2.94-7.11,6.8-9.19,11.39-.51,1.12-.79,2.3-.98,3.64ZM85.32,62.06c-.04,1.54.5,1.91,1.87,1.23.54-.27,1.03-.64,1.51-1.02,4.07-3.28,7.4-7.24,10.43-11.47.7-.98,1.26-2.12,2.54-2.53.48-.15.45-.46.35-.86-.33-1.4-1.16-2.12-2.63-1.92-1.49.2-2.77.93-3.95,1.81-4.3,3.22-7.45,7.33-9.5,12.29-.33.79-.6,1.6-.61,2.47ZM151.98,62.06c0,1.31.46,1.79,1.48,1.28.81-.41,1.6-.9,2.3-1.47,3.74-3.01,6.7-6.73,9.52-10.57.65-.88,1.27-1.83,2.11-2.5.72-.57,1.65-.82,1.09-2.02-.56-1.2-1.54-1.47-2.73-1.28-1.16.19-2.22.68-3.17,1.35-4.91,3.43-8.21,8.08-10.22,13.67-.2.57-.29,1.18-.37,1.54ZM261.44,62.24c0,1.16.44,1.69,1.69,1.1.89-.42,1.67-1,2.41-1.64,3.63-3.2,6.77-6.85,9.52-10.82.69-1,1.28-2.11,2.52-2.55.57-.2.53-.58.4-1.02-.42-1.37-1.32-2-2.76-1.78-1.37.21-2.5.94-3.59,1.72-3.86,2.76-6.59,6.48-8.78,10.61-.71,1.35-1.26,2.78-1.39,4.38Z"/>
          <path class="cls-1" d="M54.66,36.74c2.89.1,5.8-.03,8.68.45,4.17.7,8.11,1.97,11.03,5.23,3.03,3.38,3.54,7.34,2.35,11.64-1.6,5.78-5.01,10.44-9.24,14.49-11.05,10.6-24.01,17.66-39.14,20.48-5.22.97-10.47.89-15.54-.94-6.91-2.5-9.24-9.01-5.52-15.37,2.8-4.78,7.23-7.67,11.96-10.19.76-.4,1.43-.71,1.68-1.72,3.71-14.67,9.88-28.31,17.46-41.36,1.26-2.16,2.61-4.27,3.99-6.36.92-1.4,2.71-1.67,4.16-.74,1.34.86,1.76,2.33.86,3.81-3.84,6.31-7.61,12.65-10.73,19.36-.63,1.36-1.28,2.71-2.06,4.37,3.14-.92,5.86-1.95,8.5-3.14,8.4-3.8,16.12-8.66,22.75-15.13,2.08-2.03,3.72-4.37,4.7-7.12,1.07-3.02.13-5.69-2.59-7.44-2.22-1.43-4.73-1.97-7.3-2.12-8.44-.5-16.48,1.41-24.32,4.33-9.03,3.37-17.52,7.72-24.8,14.16-2.44,2.16-4.63,4.52-6.28,7.35-.71,1.22-1.28,2.49-1.35,3.94-.07,1.36.4,2.37,1.69,2.94.54.24,1.3.42,1.1,1.21-.19.73-.94.92-1.61,1.03-2.36.39-4.86-1.78-5.08-4.45-.16-1.99.35-3.88,1.2-5.67,2.63-5.5,6.88-9.59,11.66-13.17C23.77,8.49,35.85,3.02,49.26.73c5.5-.94,11.08-1.09,16.55.26,4.98,1.23,9.02,3.74,10.45,9.13.84,3.14,0,6.06-1.43,8.82-2.46,4.71-6.36,8.14-10.46,11.36-2.79,2.19-5.86,3.96-8.97,5.66-.28.16-.77.12-.75.77ZM19.84,65.73c-4.12,2.7-7.67,5.35-9.34,9.75-1.41,3.73-.34,6.26,3.25,7.94,4.06,1.9,8.34,1.69,12.57.89,12.57-2.38,23.58-8.07,33.32-16.25,4.51-3.78,8.56-8.04,10.94-13.56,2.64-6.11.35-10.73-6.11-12.41-3.21-.83-6.49-1.08-9.8-.94-6.09.26-11.96,1.55-17.69,3.58-1.14.4-2.35,1.03-3.51.3-.81-.52-1-.24-1.26.45-.58,1.54-1.23,3.06-1.79,4.61-1.06,2.9-2.07,5.81-3.23,9.07.98-.25,1.54-.4,2.11-.54,3.74-.88,7.49-1.77,11.38-1.35.76.08,1.59.32,1.52,1.24-.08.92-.94.99-1.7.97-4.55-.13-8.78,1.23-13,2.69-.9.31-1.37.82-1.59,1.77-.78,3.38-1.79,6.71-1.75,10.25.02,1.7-1.28,2.32-2.77,1.45-1.37-.8-2.11-1.98-2.14-3.59-.03-1.95.18-3.89.58-6.32Z"/>
          <path class="cls-1" d="M189.83,38.7c-.64-.44-.62-.97-.72-1.42-.37-1.6-1.13-2.76-2.64-3.68-3.65-2.21-4.61-5.83-4.31-9.83.13-1.69.61-3.35,1.24-4.95,5.48,3.37,9.36,7.53,6.37,14.67-.39.94-.5,1.83.29,2.82,1.15-1.83,2.17-3.49,2.28-5.71.22-4.19,2.23-7.45,5.97-9.45,1.98-1.06,4.11-1.86,6.16-2.79.66-.3.98-.26,1.04.59.27,4.19-.69,7.99-3.4,11.27-1.63,1.97-3.72,3.32-6.23,3.49-2.7.18-4.21,1.6-5.3,3.83-.18.38-.45.71-.74,1.17ZM197.11,27.82c-2.05,1.49-3.31,3.54-4.49,5.65,2.15-1.38,3.02-3.77,4.49-5.65Z"/>
        </g>
      </g>
    </g>
  </g>
</svg>